<svg width="80" height="43" viewBox="0 0 80 43" fill="none" xmlns="http://www.w3.org/2000/svg">
<path d="M12.402 12.8306H12.3992C10.1369 12.8306 8.30298 14.6177 8.30298 16.8223V16.8249C8.30298 19.0295 10.1369 20.8167 12.3992 20.8167H12.402C14.6643 20.8167 16.4982 19.0295 16.4982 16.8249V16.8223C16.4982 14.6177 14.6643 12.8306 12.402 12.8306Z" fill="#AFB1B8"/>
<path d="M42.6367 11.5545C42.6303 8.49242 41.3794 5.55752 39.1578 3.39207C36.9362 1.22661 33.9248 0.00695286 30.7827 0V0C27.6396 0.00556265 24.6268 1.22461 22.404 3.39022C20.1813 5.55582 18.9296 8.49151 18.9232 11.5545V28.4402C18.9232 28.4402 42.634 25.8667 42.6367 11.5571V11.5545Z" fill="#AFB1B8"/>
<path d="M-0.00012207 33.9823C0.00557697 36.1129 0.876434 38.1547 2.42215 39.6615C3.96787 41.1683 6.06278 42.0177 8.24911 42.0239C10.435 42.0177 12.5295 41.1687 14.0751 39.6625C15.6208 38.1562 16.4919 36.1151 16.4983 33.9849V22.2356C16.4983 22.2356 -0.00012207 24.0276 -0.00012207 33.9823ZM8.24911 36.0874C7.82186 36.0874 7.40421 35.964 7.04897 35.7326C6.69373 35.5013 6.41685 35.1726 6.25335 34.7879C6.08985 34.4032 6.04707 33.98 6.13042 33.5716C6.21377 33.1632 6.41951 32.7881 6.72162 32.4937C7.02373 32.1993 7.40864 31.9988 7.82767 31.9176C8.24671 31.8364 8.68105 31.8781 9.07578 32.0374C9.4705 32.1967 9.80787 32.4665 10.0452 32.8127C10.2826 33.1589 10.4093 33.5659 10.4093 33.9823C10.4104 34.2594 10.3553 34.534 10.2472 34.7903C10.1391 35.0466 9.98016 35.2796 9.77946 35.476C9.57876 35.6723 9.34027 35.828 9.07765 35.9343C8.81503 36.0406 8.53347 36.0953 8.24911 36.0953V36.0874Z" fill="#AFB1B8"/>
<path d="M25.089 34.7812H23.4015V36.5244H22.5226V32.2588H25.2999V32.9707H23.4015V34.0723H25.089V34.7812ZM29.3136 34.4883C29.3136 34.9082 29.2394 35.2764 29.0909 35.5928C28.9425 35.9092 28.7296 36.1533 28.4523 36.3252C28.1769 36.4971 27.8605 36.583 27.5031 36.583C27.1495 36.583 26.8341 36.498 26.5568 36.3281C26.2794 36.1582 26.0646 35.916 25.9122 35.6016C25.7599 35.2852 25.6827 34.9219 25.6808 34.5117V34.3008C25.6808 33.8809 25.756 33.5117 25.9064 33.1934C26.0587 32.873 26.2726 32.6279 26.548 32.458C26.8253 32.2861 27.1417 32.2002 27.4972 32.2002C27.8527 32.2002 28.1681 32.2861 28.4435 32.458C28.7208 32.6279 28.9347 32.873 29.0851 33.1934C29.2374 33.5117 29.3136 33.8799 29.3136 34.2979V34.4883ZM28.423 34.2949C28.423 33.8477 28.3429 33.5078 28.1827 33.2754C28.0226 33.043 27.7941 32.9268 27.4972 32.9268C27.2023 32.9268 26.9747 33.042 26.8146 33.2725C26.6544 33.501 26.5734 33.8369 26.5714 34.2803V34.4883C26.5714 34.9238 26.6515 35.2617 26.8116 35.502C26.9718 35.7422 27.2023 35.8623 27.5031 35.8623C27.798 35.8623 28.0245 35.7471 28.1827 35.5166C28.3409 35.2842 28.421 34.9463 28.423 34.5029V34.2949ZM32.1642 35.4053C32.1642 35.2393 32.1056 35.1123 31.9884 35.0244C31.8712 34.9346 31.6603 34.8408 31.3556 34.7432C31.0509 34.6436 30.8097 34.5459 30.632 34.4502C30.1476 34.1885 29.9054 33.8359 29.9054 33.3926C29.9054 33.1621 29.9698 32.957 30.0988 32.7773C30.2296 32.5957 30.4161 32.4541 30.6583 32.3525C30.9025 32.251 31.1759 32.2002 31.4786 32.2002C31.7833 32.2002 32.0548 32.2559 32.2931 32.3672C32.5314 32.4766 32.7159 32.6318 32.8468 32.833C32.9796 33.0342 33.046 33.2627 33.046 33.5186H32.1671C32.1671 33.3232 32.1056 33.1719 31.9825 33.0645C31.8595 32.9551 31.6866 32.9004 31.464 32.9004C31.2491 32.9004 31.0822 32.9463 30.963 33.0381C30.8439 33.1279 30.7843 33.2471 30.7843 33.3955C30.7843 33.5342 30.8536 33.6504 30.9923 33.7441C31.1329 33.8379 31.339 33.9258 31.6105 34.0078C32.1105 34.1582 32.4747 34.3447 32.7032 34.5674C32.9318 34.79 33.046 35.0674 33.046 35.3994C33.046 35.7686 32.9064 36.0586 32.6271 36.2695C32.3478 36.4785 31.9718 36.583 31.4991 36.583C31.171 36.583 30.8722 36.5234 30.6027 36.4043C30.3331 36.2832 30.1271 36.1182 29.9845 35.9092C29.8439 35.7002 29.7736 35.458 29.7736 35.1826H30.6554C30.6554 35.6533 30.9366 35.8887 31.4991 35.8887C31.7081 35.8887 31.8712 35.8467 31.9884 35.7627C32.1056 35.6768 32.1642 35.5576 32.1642 35.4053ZM36.8546 32.9707H35.548V36.5244H34.6691V32.9707H33.38V32.2588H36.8546V32.9707ZM39.9249 34.6758H38.2374V35.8184H40.2179V36.5244H37.3585V32.2588H40.212V32.9707H38.2374V33.9873H39.9249V34.6758ZM42.3126 34.9629H41.6124V36.5244H40.7335V32.2588H42.3185C42.8224 32.2588 43.2111 32.3711 43.4845 32.5957C43.7579 32.8203 43.8947 33.1377 43.8947 33.5479C43.8947 33.8389 43.8312 34.082 43.7042 34.2773C43.5792 34.4707 43.3888 34.625 43.1329 34.7402L44.0558 36.4834V36.5244H43.1124L42.3126 34.9629ZM41.6124 34.251H42.3214C42.5421 34.251 42.713 34.1953 42.8341 34.084C42.9552 33.9707 43.0157 33.8154 43.0157 33.6182C43.0157 33.417 42.9581 33.2588 42.8429 33.1436C42.7296 33.0283 42.5548 32.9707 42.3185 32.9707H41.6124V34.251ZM46.9386 35.0215V36.5244H46.0597V32.2588H47.7238C48.0441 32.2588 48.3253 32.3174 48.5675 32.4346C48.8116 32.5518 48.9991 32.7188 49.13 32.9355C49.2609 33.1504 49.3263 33.3955 49.3263 33.6709C49.3263 34.0889 49.1827 34.4189 48.8956 34.6611C48.6105 34.9014 48.215 35.0215 47.7091 35.0215H46.9386ZM46.9386 34.3096H47.7238C47.9562 34.3096 48.1329 34.2549 48.254 34.1455C48.3771 34.0361 48.4386 33.8799 48.4386 33.6768C48.4386 33.4678 48.3771 33.2988 48.254 33.1699C48.131 33.041 47.9611 32.9746 47.7443 32.9707H46.9386V34.3096ZM52.4991 34.6758H50.8116V35.8184H52.7921V36.5244H49.9327V32.2588H52.7863V32.9707H50.8116V33.9873H52.4991V34.6758ZM56.5773 32.9707H55.2706V36.5244H54.3917V32.9707H53.1027V32.2588H56.5773V32.9707ZM59.6476 34.6758H57.9601V35.8184H59.9406V36.5244H57.0812V32.2588H59.9347V32.9707H57.9601V33.9873H59.6476V34.6758ZM62.0353 34.9629H61.3351V36.5244H60.4562V32.2588H62.0411C62.545 32.2588 62.9337 32.3711 63.2072 32.5957C63.4806 32.8203 63.6173 33.1377 63.6173 33.5479C63.6173 33.8389 63.5538 34.082 63.4269 34.2773C63.3019 34.4707 63.1115 34.625 62.8556 34.7402L63.7784 36.4834V36.5244H62.8351L62.0353 34.9629ZM61.3351 34.251H62.0441C62.2648 34.251 62.4357 34.1953 62.5568 34.084C62.6779 33.9707 62.7384 33.8154 62.7384 33.6182C62.7384 33.417 62.6808 33.2588 62.5656 33.1436C62.4523 33.0283 62.2775 32.9707 62.0411 32.9707H61.3351V34.251ZM66.5001 35.4053C66.5001 35.2393 66.4415 35.1123 66.3243 35.0244C66.2072 34.9346 65.9962 34.8408 65.6915 34.7432C65.3868 34.6436 65.1456 34.5459 64.9679 34.4502C64.4835 34.1885 64.2413 33.8359 64.2413 33.3926C64.2413 33.1621 64.3058 32.957 64.4347 32.7773C64.5656 32.5957 64.7521 32.4541 64.9943 32.3525C65.2384 32.251 65.5118 32.2002 65.8146 32.2002C66.1193 32.2002 66.3907 32.2559 66.629 32.3672C66.8673 32.4766 67.0519 32.6318 67.1827 32.833C67.3156 33.0342 67.382 33.2627 67.382 33.5186H66.5031C66.5031 33.3232 66.4415 33.1719 66.3185 33.0645C66.1954 32.9551 66.0226 32.9004 65.7999 32.9004C65.5851 32.9004 65.4181 32.9463 65.299 33.0381C65.1798 33.1279 65.1202 33.2471 65.1202 33.3955C65.1202 33.5342 65.1896 33.6504 65.3282 33.7441C65.4689 33.8379 65.6749 33.9258 65.9464 34.0078C66.4464 34.1582 66.8107 34.3447 67.0392 34.5674C67.2677 34.79 67.382 35.0674 67.382 35.3994C67.382 35.7686 67.2423 36.0586 66.963 36.2695C66.6837 36.4785 66.3077 36.583 65.8351 36.583C65.507 36.583 65.2081 36.5234 64.9386 36.4043C64.6691 36.2832 64.463 36.1182 64.3204 35.9092C64.1798 35.7002 64.1095 35.458 64.1095 35.1826H64.9913C64.9913 35.6533 65.2726 35.8887 65.8351 35.8887C66.0441 35.8887 66.2072 35.8467 66.3243 35.7627C66.4415 35.6768 66.5001 35.5576 66.5001 35.4053Z" fill="#AFB1B8"/>
</svg>
